<svg width="76" height="48" viewBox="0 0 76 48" fill="none" xmlns="http://www.w3.org/2000/svg">
<g clip-path="url(#clip0_2226_197)">
<path d="M46.6978 0H28.3428C25.4107 0 23.0261 2.38457 23.0261 5.31663V23.6717C23.0261 26.6037 25.4107 28.9883 28.3428 28.9883H46.6978C49.6298 28.9883 52.0144 26.6037 52.0144 23.6717V5.31663C52.0144 2.38457 49.6298 0 46.6978 0Z" fill="url(#paint0_linear_2226_197)"/>
<path d="M42.7655 8.08423H42.207C42.1453 8.08423 42.0883 8.08581 42.0313 8.08898H41.5456C40.9459 8.08898 40.3873 8.39911 40.0724 8.91021L39.0629 10.1033C39.0629 10.1033 38.498 10.7568 37.517 10.7457C36.5359 10.7346 35.9774 10.1033 35.9774 10.1033L34.9678 8.91021C34.6529 8.39911 34.096 8.08898 33.4947 8.08898H33.0089C32.9535 8.08898 32.8966 8.08581 32.838 8.08581H32.2747C30.9582 8.10005 29.887 9.18237 29.887 10.4989V20.2824H33.0516C32.8776 19.6083 32.7937 18.939 32.7937 17.9421C32.7937 17.6921 32.8111 17.3171 32.8475 17.0481C32.8712 16.8788 32.925 16.6367 33.1212 16.4896C33.2605 16.3867 33.3966 16.3377 33.539 16.3377C33.5611 16.3377 33.5849 16.3377 33.6118 16.3424H33.6244C33.6244 16.3424 33.6402 16.3424 33.6482 16.344C34.2194 16.4468 34.1276 17.1083 34.0849 17.4247C34.0612 17.5972 34.0501 17.7713 34.0501 17.9421C34.0501 19.0957 34.2621 19.8235 34.7352 20.2982C34.7859 20.3489 34.8428 20.3932 34.8982 20.4375C35.4156 20.8473 36.1989 21.0483 37.2923 21.0483C37.3635 21.0483 37.4363 21.0483 37.509 21.0451C38.6784 21.0198 39.5107 20.8204 40.0534 20.4359C40.7038 19.9739 40.9823 19.2286 40.9823 17.9421C40.9823 17.7697 40.9712 17.5972 40.9475 17.4311C40.9031 17.113 40.813 16.4532 41.3842 16.3503C41.4063 16.3472 41.4253 16.3456 41.4459 16.3456H41.4902C41.6358 16.3456 41.7766 16.3978 41.9111 16.4991C42.1073 16.6462 42.1611 16.8883 42.1833 17.0576C42.2196 17.3235 42.2355 17.6937 42.2355 17.9437C42.2355 18.939 42.1516 19.6083 41.9776 20.284H45.1517V18.0466C45.1517 18.0355 45.1533 18.0244 45.1533 18.0134V10.4989C45.1533 9.18237 44.082 8.10005 42.7655 8.08581V8.08423ZM34.634 14.9705C34.4995 15.1509 34.3064 15.2554 34.1023 15.2554H34.0817C33.6909 15.2411 33.3665 14.9468 33.2953 14.5401C33.2842 14.4768 33.2795 14.4104 33.2811 14.3455L33.2842 14.2696C33.2874 14.2015 33.2969 14.1335 33.3127 14.0686C33.3713 13.8439 33.5152 13.6477 33.7067 13.5322C33.8317 13.4562 33.9725 13.4167 34.1118 13.4167C34.1229 13.4167 34.1339 13.4167 34.145 13.4167C34.357 13.4246 34.5517 13.5417 34.6767 13.7395C34.7843 13.9072 34.8381 14.1287 34.8302 14.3613C34.8222 14.5939 34.7526 14.8091 34.634 14.9705ZM41.7449 14.5401C41.6737 14.9468 41.3494 15.2411 40.9585 15.2538H40.9364C40.5392 15.2538 40.2259 14.8693 40.2085 14.3598C40.2006 14.1097 40.2639 13.8756 40.3873 13.7015C40.5139 13.5243 40.6943 13.423 40.8937 13.4151C40.9031 13.4151 40.9142 13.4151 40.9237 13.4151C41.0661 13.4151 41.2085 13.4547 41.3335 13.5306C41.525 13.6461 41.669 13.8407 41.7275 14.0654C41.7449 14.1319 41.7544 14.1984 41.7576 14.2664L41.7608 14.3439C41.7624 14.4104 41.7576 14.4753 41.7465 14.5386L41.7449 14.5401Z" fill="white"/>
<path d="M9.58734 36.4538C8.30091 35.4396 6.39261 34.9253 3.91627 34.9253H0.150321C0.0553816 34.9253 0 34.9807 0 35.0756V47.8007C0 47.8957 0.0537992 47.9495 0.150321 47.9495H4.05551C6.49705 47.9495 8.37369 47.4004 9.63165 46.3149C10.8928 45.2294 11.5304 43.5617 11.5304 41.359C11.5304 39.1564 10.8769 37.4713 9.58576 36.4538H9.58734ZM9.02719 41.359C9.02719 42.7642 8.66959 43.8512 7.96387 44.5918C7.25815 45.3307 6.07773 45.7057 4.45584 45.7057H2.45261V37.1675H4.45584C5.98912 37.1675 7.1458 37.4887 7.89899 38.12C8.64902 38.7498 9.02878 39.84 9.02878 41.3575L9.02719 41.359Z" fill="#17214C"/>
<path d="M18.8536 39.688C18.1748 39.3384 17.3884 39.1611 16.5165 39.1611C15.6446 39.1611 14.8408 39.3384 14.162 39.688C13.48 40.0393 12.9452 40.5552 12.5717 41.2197C12.1999 41.8827 12.01 42.6787 12.01 43.5853C12.01 44.492 12.1983 45.2847 12.5717 45.943C12.9452 46.6028 13.48 47.1155 14.162 47.4668C14.8392 47.8165 15.632 47.9937 16.5165 47.9937C17.401 47.9937 18.1764 47.8165 18.8536 47.4668C19.534 47.1155 20.0751 46.5997 20.4597 45.9351C20.8426 45.2721 21.0372 44.4809 21.0372 43.5853C21.0372 42.6897 20.8426 41.8827 20.4597 41.2197C20.0751 40.5552 19.5356 40.0409 18.8536 39.688ZM16.5165 46.0126C15.8266 46.0126 15.2791 45.7816 14.8899 45.3259C14.4974 44.867 14.2981 44.2689 14.2981 43.5521C14.2981 42.8353 14.5022 42.2609 14.9041 41.8115C15.3044 41.3653 15.8456 41.139 16.5149 41.139C17.1842 41.139 17.7428 41.3606 18.1431 41.7957C18.545 42.234 18.7492 42.8242 18.7492 43.5505C18.7492 44.2768 18.5688 44.8813 18.2112 45.3354C17.8599 45.7832 17.2887 46.011 16.5149 46.011L16.5165 46.0126Z" fill="#17214C"/>
<path d="M29.3284 39.9776C29.0072 39.745 28.523 39.5409 27.8901 39.3716C27.3616 39.2307 26.7793 39.158 26.159 39.158C26.0388 39.158 25.9153 39.1611 25.7935 39.1659C24.9501 39.1991 24.1431 39.4728 23.3931 39.9824C22.6415 40.4919 22.1209 41.1295 21.8472 41.878C21.651 42.4144 21.5513 42.9793 21.5513 43.5584C21.5513 44.4113 21.7681 45.2104 22.1953 45.9335C22.6225 46.6582 23.2349 47.2089 24.0134 47.5712C24.6479 47.856 25.3948 48 26.235 48C26.7682 48 27.2841 47.9399 27.7682 47.8196C28.2556 47.6994 28.686 47.5206 29.0484 47.2911C29.1211 47.2373 29.156 47.1661 29.156 47.0839L29.2208 45.3417C29.2208 45.1597 29.099 45.1518 29.0737 45.1518C29.0357 45.1518 28.9946 45.1661 28.9487 45.1945L28.9439 45.1977L28.9392 45.2025C28.6275 45.4635 28.2509 45.6645 27.8236 45.799C27.3932 45.9351 26.9518 46.0047 26.5103 46.0047C25.9976 46.0047 25.5261 45.9145 25.1083 45.7373C24.7507 45.5838 24.4501 45.3132 24.2143 44.9335C23.977 44.5521 23.8567 44.1059 23.8567 43.6091C23.8567 43.4208 23.8836 43.1929 23.9358 42.9318C24.0688 42.3479 24.371 41.897 24.833 41.5932C25.2998 41.2862 25.8331 41.1311 26.4138 41.1311C27.2382 41.1311 27.9993 41.4333 28.6797 42.0299C28.724 42.0663 28.7651 42.0837 28.8063 42.0837C28.8506 42.0837 28.9281 42.0647 28.9613 41.9334L29.4139 40.2055C29.4329 40.1105 29.4028 40.0314 29.3316 39.9776H29.3284Z" fill="#17214C"/>
<path d="M36.2402 39.2228H33.8445V37.6911C33.8445 37.5756 33.7702 37.5012 33.6547 37.5012H32.4584C32.3666 37.5012 32.2938 37.5519 32.259 37.6405L31.5897 39.2228H30.3587C30.2606 39.2228 30.1893 39.2813 30.1704 39.3794L29.7194 41.0219V41.033C29.7067 41.101 29.7194 41.1564 29.7542 41.196C29.7764 41.2213 29.8175 41.2513 29.8903 41.2513H31.5264V45.4635C31.5264 46.2737 31.7733 46.9066 32.2606 47.3433C32.7448 47.7769 33.3888 47.9968 34.1737 47.9968C35.0629 47.9968 35.7671 47.8054 36.2655 47.4288L36.2702 47.4256L36.275 47.4209C36.3146 47.3813 36.3351 47.3227 36.3351 47.242V45.8844C36.3351 45.7436 36.2418 45.6945 36.1611 45.6945H36.112L36.0962 45.7009C35.506 45.9224 35.0281 46.0347 34.6737 46.0347C34.1088 46.0347 33.8461 45.7404 33.8461 45.1091V41.2513H35.6436C35.7497 41.2513 35.8256 41.196 35.8462 41.1026L36.4095 39.4601C36.4301 39.3874 36.4237 39.3304 36.3905 39.2877C36.3684 39.2576 36.324 39.2228 36.2402 39.2228Z" fill="#17214C"/>
<path d="M43.3399 39.6849C42.6611 39.3352 41.8747 39.158 41.0028 39.158C40.131 39.158 39.3271 39.3352 38.6483 39.6849C37.9663 40.0362 37.4315 40.552 37.0581 41.2166C36.6862 41.8796 36.4963 42.6755 36.4963 43.5822C36.4963 44.4888 36.6846 45.2816 37.0581 45.9398C37.4315 46.5997 37.9663 47.1123 38.6483 47.4636C39.3255 47.8133 40.1183 47.9905 41.0028 47.9905C41.8873 47.9905 42.6627 47.8133 43.3399 47.4636C44.0203 47.1123 44.5615 46.5965 44.946 45.9319C45.3289 45.2689 45.5235 44.4778 45.5235 43.5822C45.5235 42.6866 45.3289 41.8796 44.946 41.2166C44.5615 40.552 44.0219 40.0362 43.3399 39.6849ZM43.2355 43.5489C43.2355 44.2784 43.0551 44.8797 42.6975 45.3338C42.3462 45.7816 41.775 46.0094 41.0012 46.0094C40.3113 46.0094 39.7639 45.7784 39.3746 45.3227C38.9822 44.8638 38.7828 44.2657 38.7828 43.5489C38.7828 42.8321 38.9869 42.2577 39.3888 41.8084C39.7892 41.3621 40.3303 41.1359 40.9996 41.1359C41.669 41.1359 42.2275 41.3574 42.6279 41.7925C43.0298 42.2308 43.2339 42.8211 43.2339 43.5473L43.2355 43.5489Z" fill="#17214C"/>
<path d="M51.9021 39.3479C51.5334 39.2244 51.1758 39.1627 50.8324 39.1627C50.3119 39.1627 49.8166 39.2909 49.3577 39.5457C48.9859 39.7514 48.6599 40.0362 48.3862 40.3938L48.4368 39.1944C48.4368 39.0504 48.3434 38.9998 48.2627 38.9998H48.2105L46.3355 39.4412C46.2263 39.4776 46.2136 39.5045 46.2136 39.6612V47.8038C46.2136 47.9193 46.288 47.9937 46.4035 47.9937H48.3434C48.4589 47.9937 48.5333 47.9193 48.5333 47.8038V42.3258C48.7976 42.0046 49.0856 41.7609 49.3894 41.5995C49.6979 41.435 50.0524 41.3527 50.4448 41.3527C50.7438 41.3527 50.9875 41.3907 51.1679 41.4666C51.3435 41.5394 51.5018 41.6565 51.6252 41.821C51.6774 41.8907 51.717 41.9239 51.7597 41.9223C51.7771 41.9223 51.8024 41.9207 51.8182 41.9144C51.8467 41.9033 51.9084 41.8907 51.91 41.7451L52.0398 39.552C52.0398 39.4539 51.9907 39.3827 51.9005 39.3463L51.9021 39.3479Z" fill="#17214C"/>
<path d="M59.6096 40.313C59.5605 40.4206 59.4545 40.476 59.3438 40.4507C59.4577 40.476 59.5637 40.419 59.608 40.313H59.6096Z" fill="#00215A"/>
<path d="M53.3071 47.7168V47.7516H53.3182C53.315 47.7405 53.3071 47.7326 53.3071 47.7168Z" fill="#00215A"/>
<path d="M53.459 47.7168H53.3071L53.459 47.72C53.459 47.72 53.459 47.72 53.459 47.7168Z" fill="#00215A"/>
<path d="M53.4907 47.7009L53.4939 47.7183L53.4907 47.7009Z" fill="#00215A"/>
<path d="M65.203 35.0328H62.7868C62.7298 35.0328 62.6839 35.0613 62.6507 35.1183L59.4449 40.226C59.4338 40.2609 59.4132 40.2751 59.3847 40.2688C59.3563 40.2624 59.3309 40.2498 59.3072 40.226L55.8103 35.1009C55.7754 35.055 55.7296 35.0328 55.6742 35.0328H53.4114C53.3434 35.0328 53.3086 35.0661 53.3086 35.1357V47.682H53.4874L53.4921 47.701L53.4953 47.7184V47.7532L53.3197 47.75C53.3307 47.7912 53.3576 47.8181 53.4114 47.8181H55.5365C55.6061 47.8181 55.6394 47.7833 55.6394 47.7152V38.5282L59.2218 43.6866C59.2677 43.7325 59.3072 43.7546 59.342 43.7546C59.3642 43.7546 59.399 43.7325 59.4449 43.6866L62.9766 38.6991V47.7152C62.9766 47.7833 63.0114 47.8181 63.0795 47.8181H65.2046C65.2726 47.8181 65.3074 47.7833 65.3074 47.7152V35.1341C65.3074 35.0661 65.2726 35.0312 65.2046 35.0312L65.203 35.0328ZM59.3452 40.4507C59.4528 40.4745 59.5572 40.4207 59.6063 40.3162C59.5604 40.4191 59.4575 40.4745 59.3452 40.4507Z" fill="#17214C"/>
<path d="M53.4937 47.7183L53.4906 47.7009H53.4257V47.6819H53.3086V47.7167H53.4605C53.4605 47.7167 53.4605 47.7167 53.4605 47.7199L53.3086 47.7167C53.3086 47.7325 53.3165 47.7388 53.3197 47.7515L53.4953 47.7547V47.7199L53.4937 47.7183Z" fill="#00215A"/>
<path d="M53.4258 47.6819V47.7009H53.4907L53.4859 47.6819H53.4258Z" fill="#00215A"/>
<path d="M71.0117 40.8115C70.469 40.8115 70.0291 40.9523 69.7047 41.2293C69.4167 41.4745 69.2031 41.8195 69.0686 42.2546H72.7285C72.7143 41.8606 72.5687 41.5362 72.2855 41.2657C71.9674 40.9634 71.5386 40.8115 71.0117 40.8115ZM69.1161 42.2198C69.249 41.8116 69.4547 41.4872 69.7269 41.2546C70.0449 40.9824 70.4769 40.8448 71.0117 40.8448C71.5465 40.8448 71.9516 40.9951 72.2617 41.291C72.5307 41.5473 72.6716 41.8511 72.6921 42.2198H69.1161Z" fill="#00215A"/>
<path d="M74.534 40.9C74.197 40.226 73.7207 39.7006 73.1036 39.3225C72.4865 38.9459 71.7602 38.7576 70.9263 38.7576C70.0924 38.7576 69.3361 38.9601 68.6557 39.3652C67.9753 39.7703 67.442 40.3288 67.0528 41.0361C66.6635 41.745 66.4705 42.533 66.4705 43.4017C66.4705 44.4413 66.7442 45.3353 67.2933 46.0838C67.8423 46.8322 68.6019 47.3544 69.5734 47.6518C70.0307 47.8006 70.6019 47.875 71.2871 47.875C71.9153 47.875 72.5102 47.8069 73.0704 47.6693C73.6305 47.5316 74.0815 47.3322 74.4248 47.0696C74.4818 47.0237 74.5103 46.9604 74.5103 46.8813L74.6479 45.0473C74.6479 44.9445 74.6084 44.9223 74.5277 44.9793C74.1052 45.3559 73.6479 45.6217 73.1558 45.7768C72.6637 45.9303 72.1273 46.0078 71.545 46.0078C69.9231 46.0078 69.0085 45.3622 68.8028 44.071H74.8695C74.9375 44.071 74.9771 44.0362 74.9897 43.9682C75.0245 43.7055 75.0419 43.4476 75.0419 43.1976C75.0419 42.34 74.8726 41.5757 74.5356 40.9H74.534ZM72.7286 42.2561H69.0686C69.2031 41.821 69.4168 41.476 69.7047 41.2308C70.0291 40.9538 70.469 40.813 71.0117 40.813C71.5545 40.813 71.9691 40.9665 72.2855 41.2671C72.5688 41.5377 72.7143 41.8621 72.7286 42.2561Z" fill="#17214C"/>
</g>
<defs>
<linearGradient id="paint0_linear_2226_197" x1="37.5203" y1="28.9899" x2="37.5203" y2="0" gradientUnits="userSpaceOnUse">
<stop stop-color="#17C3EB"/>
<stop offset="0.2" stop-color="#2BC8ED"/>
<stop offset="0.5" stop-color="#44CFEF"/>
<stop offset="0.78" stop-color="#54D3F1"/>
<stop offset="1" stop-color="#5AD5F2"/>
</linearGradient>
<clipPath id="clip0_2226_197">
<rect width="75.0404" height="48" fill="white"/>
</clipPath>
</defs>
</svg>
