<?xml version="1.0" encoding="utf-8"?>
<!-- Generator: Adobe Illustrator 27.5.0, SVG Export Plug-In . SVG Version: 6.00 Build 0)  -->
<svg version="1.1" id="圖層_1" xmlns="http://www.w3.org/2000/svg" xmlns:xlink="http://www.w3.org/1999/xlink" x="0px" y="0px"
	 viewBox="0 0 166 137" style="enable-background:new 0 0 166 137;" xml:space="preserve">
<style type="text/css">
	.st0{fill:url(#SVGID_1_);}
	.st1{fill:url(#SVGID_00000129203413937324744090000007449034881133242787_);}
	.st2{fill:url(#SVGID_00000124158674301856708220000018395111894051130799_);}
	.st3{fill:#17214C;}
</style>
<g>
	<g>
		<linearGradient id="SVGID_1_" gradientUnits="userSpaceOnUse" x1="83.85" y1="66.9737" x2="83.85" y2="13.7523">
			<stop  offset="0" style="stop-color:#17C3EB"/>
			<stop  offset="0.1962" style="stop-color:#2BC8ED"/>
			<stop  offset="0.5029" style="stop-color:#45CFF0"/>
			<stop  offset="0.7801" style="stop-color:#55D4F1"/>
			<stop  offset="1" style="stop-color:#5AD5F2"/>
		</linearGradient>
		<path class="st0" d="M106.7,13.8l-5.3,0c-2.6,0-5.1,1.4-6.4,3.6l-3.5,4.2c-1.2,1.5-2.9,2.6-4.8,3.1c-0.8,0.2-1.8,0.4-2.9,0.4
			c-1.1,0-2.1-0.2-2.9-0.4c-1.8-0.5-3.5-1.6-4.7-3.1l-3.5-4.1c-1.4-2.2-3.8-3.6-6.4-3.6l-5.3,0c-5.7,0.1-10.4,4.8-10.4,10.5l0,35.3
			c0,4.1,3.3,7.4,7.4,7.4l51.7,0v0h0c4.1,0,7.4-3.3,7.4-7.4l0-35.3C117.2,18.5,112.5,13.8,106.7,13.8z M89.5,35.6
			c0.9,0,1.6,1.3,1.6,2.8c0,1.6-0.7,2.8-1.6,2.8s-1.6-1.3-1.6-2.8C87.8,36.8,88.6,35.6,89.5,35.6z M78.2,35.6c0.9,0,1.6,1.3,1.6,2.8
			c0,1.6-0.7,2.8-1.6,2.8c-0.9,0-1.6-1.3-1.6-2.8C76.6,36.8,77.3,35.6,78.2,35.6z M101.5,46.1c0,0.2-0.2,0.6-0.6,0.9
			c0,0-0.1,0.1-0.1,0.3c-0.1,0.3-0.1,0.5-0.1,0.8c-0.1,0.4-0.1,0.8-0.2,1.2c-0.7,2.7-2.1,5-4.4,7c-2.7,2.4-6,3.9-9.7,4.3
			c-0.8,0.1-1.7,0.1-2.5,0.1c-4.6,0-8.6-1.5-12-4.5c-2.8-2.4-4.3-5.4-4.7-8.9c0-0.1,0-0.2,0-0.3l0-0.2c0,0,0-0.1,0-0.1
			c0,0-0.1,0-0.1,0.1c-0.3,0.1-0.5,0.1-0.6,0c-0.1-0.1-0.2-0.3-0.2-0.5c0-0.2,0-0.6,0.2-0.9c0.3-0.5,0.9-0.9,1.6-1.1
			c0.3-0.1,0.5,0,0.7,0.2c0.2,0.2,0.2,0.5,0.1,0.8c-0.1,0.3-0.3,0.5-0.5,0.6c-0.2,0.2-0.3,0.3-0.2,0.7c0.1,0.2,0.2,0.4,0.2,0.7
			c0.2,0.7,0.5,1.4,0.8,2.1c1.6,3.2,4.3,5.7,8,7.2c2.2,0.9,4.6,1.4,7,1.4c4.3-0.1,7.8-1.3,10.9-3.7c2.3-1.8,3.9-4.1,4.8-6.9
			c0.1-0.2,0.1-0.4,0.1-0.5l0-0.2c0-0.2,0-0.4-0.2-0.5c-0.2-0.2-0.5-0.4-0.7-0.6c-0.2-0.3-0.3-0.7-0.1-1c0.2-0.3,0.6-0.4,0.9-0.2
			c0.1,0,0.2,0.1,0.3,0.1c0.4,0.2,0.8,0.4,1.1,0.7C101.4,45.6,101.5,45.9,101.5,46.1z"/>
		
			<linearGradient id="SVGID_00000112597955995466791690000012368171652691922855_" gradientUnits="userSpaceOnUse" x1="83.85" y1="20.2014" x2="83.85" y2="7.8738">
			<stop  offset="0" style="stop-color:#17C3EB"/>
			<stop  offset="0.1962" style="stop-color:#2BC8ED"/>
			<stop  offset="0.5029" style="stop-color:#45CFF0"/>
			<stop  offset="0.7801" style="stop-color:#55D4F1"/>
			<stop  offset="1" style="stop-color:#5AD5F2"/>
		</linearGradient>
		<path style="fill:url(#SVGID_00000112597955995466791690000012368171652691922855_);" d="M82,20.2h3.7c0.6,0,1-0.5,1-1v-2.3H89
			c0.6,0,1-0.5,1-1v-3.7c0-0.6-0.5-1-1-1h-2.3V8.9c0-0.6-0.5-1-1-1H82c-0.6,0-1,0.5-1,1v2.3h-2.3c-0.6,0-1,0.5-1,1v3.7
			c0,0.6,0.5,1,1,1H81v2.3C81,19.7,81.4,20.2,82,20.2z"/>
		
			<linearGradient id="SVGID_00000036962490233394140080000014755567015728093608_" gradientUnits="userSpaceOnUse" x1="67.0859" y1="5.3026" x2="100.6142" y2="5.3026">
			<stop  offset="0" style="stop-color:#17C3EB"/>
			<stop  offset="0.1962" style="stop-color:#2BC8ED"/>
			<stop  offset="0.5029" style="stop-color:#45CFF0"/>
			<stop  offset="0.7801" style="stop-color:#55D4F1"/>
			<stop  offset="1" style="stop-color:#5AD5F2"/>
		</linearGradient>
		<path style="fill:url(#SVGID_00000036962490233394140080000014755567015728093608_);" d="M67.3,9.7c0.1,0.2,0.3,0.3,0.6,0.4
			c0.2,0,0.5,0,0.7-0.2c0.5-0.4,1.2-0.8,1.8-1.2c1.7-1.2,3-2,4.9-3c6.1-3,11-3,17,0c2.1,1.1,3.3,1.7,5.3,3c0.5,0.4,1.2,0.8,1.7,1.2
			c0.2,0.1,0.3,0.2,0.5,0.2c0.1,0,0.1,0,0.2,0c0.2-0.1,0.5-0.2,0.6-0.4c0.2-0.4,0.1-1-0.3-1.3L100,8.2c-2.3-1.7-4.5-3.2-6.9-4.8
			c-2.5-1.7-5.8-2.9-9.4-2.9c-3.6,0-6.6,1-9.1,2.7c-2.5,1.7-5,3.6-7.2,5.1C67.1,8.6,67,9.2,67.3,9.7L67.3,9.7z"/>
	</g>
	<g>
		<g>
			<g>
				<g>
					<g>
						<g>
							<path class="st3" d="M27.1,88.4c-2.6-2.1-6.5-3.1-11.5-3.1H7.9c-0.2,0-0.3,0.1-0.3,0.3v25.9c0,0.2,0.1,0.3,0.3,0.3h7.9
								c5,0,8.8-1.1,11.3-3.3c2.6-2.2,3.9-5.6,3.9-10.1C31,93.8,29.7,90.5,27.1,88.4z M25.9,98.4c0,2.9-0.7,5.1-2.2,6.6
								c-1.4,1.5-3.8,2.3-7.1,2.3h-4.1V89.9h4.1c3.1,0,5.5,0.7,7,1.9C25.2,93.1,25.9,95.3,25.9,98.4z"/>
						</g>
						<g>
							<path class="st3" d="M45.9,95c-1.4-0.7-3-1.1-4.8-1.1c-1.8,0-3.4,0.4-4.8,1.1c-1.4,0.7-2.5,1.8-3.2,3.1
								c-0.8,1.3-1.1,3-1.1,4.8c0,1.8,0.4,3.5,1.1,4.8c0.8,1.3,1.8,2.4,3.2,3.1c1.4,0.7,3,1.1,4.8,1.1c1.8,0,3.4-0.4,4.8-1.1
								c1.4-0.7,2.5-1.8,3.3-3.1c0.8-1.3,1.2-3,1.2-4.8c0-1.8-0.4-3.5-1.2-4.8C48.4,96.7,47.3,95.7,45.9,95z M41.2,107.8
								c-1.4,0-2.5-0.5-3.3-1.4c-0.8-0.9-1.2-2.1-1.2-3.6c0-1.4,0.4-2.6,1.2-3.5c0.8-0.9,1.9-1.4,3.3-1.4c1.4,0,2.5,0.4,3.3,1.3
								c0.8,0.9,1.2,2.1,1.2,3.6c0,1.5-0.4,2.7-1.1,3.6C43.9,107.4,42.7,107.8,41.2,107.8z"/>
						</g>
						<g>
							<path class="st3" d="M67.2,95.6c-0.7-0.5-1.6-0.9-2.9-1.2c-1.1-0.3-2.3-0.4-3.5-0.4c-0.2,0-0.5,0-0.7,0
								c-1.7,0.1-3.4,0.6-4.9,1.7c-1.5,1-2.6,2.3-3.1,3.9c-0.4,1.1-0.6,2.2-0.6,3.4c0,1.7,0.4,3.4,1.3,4.8c0.9,1.5,2.1,2.6,3.7,3.3
								c1.3,0.6,2.8,0.9,4.5,0.9c1.1,0,2.1-0.1,3.1-0.4c1-0.2,1.9-0.6,2.6-1.1c0.1-0.1,0.2-0.3,0.2-0.4l0.1-3.5
								c0-0.4-0.2-0.4-0.3-0.4c-0.1,0-0.2,0-0.3,0.1l0,0l0,0c-0.6,0.5-1.4,0.9-2.3,1.2c-0.9,0.3-1.8,0.4-2.7,0.4c-1,0-2-0.2-2.8-0.5
								c-0.7-0.3-1.3-0.9-1.8-1.6c-0.5-0.8-0.7-1.7-0.7-2.7c0-0.4,0.1-0.8,0.2-1.4c0.3-1.2,0.9-2.1,1.8-2.7c0.9-0.6,2-0.9,3.2-0.9
								c1.7,0,3.2,0.6,4.6,1.8c0.1,0.1,0.2,0.1,0.3,0.1c0.1,0,0.2,0,0.3-0.3l0.9-3.5C67.4,95.8,67.3,95.7,67.2,95.6z"/>
						</g>
						<g>
							<path class="st3" d="M81.2,94h-4.9v-3.1c0-0.2-0.2-0.4-0.4-0.4h-2.4c-0.2,0-0.3,0.1-0.4,0.3L71.8,94h-2.5
								c-0.2,0-0.3,0.1-0.4,0.3L68,97.7l0,0l0,0c0,0.1,0,0.3,0.1,0.3c0,0.1,0.1,0.1,0.3,0.1h3.3v8.6c0,1.6,0.5,2.9,1.5,3.8
								c1,0.9,2.3,1.3,3.9,1.3c1.8,0,3.2-0.4,4.3-1.2l0,0l0,0c0.1-0.1,0.1-0.2,0.1-0.4v-2.8c0-0.3-0.2-0.4-0.4-0.4H81h0l0,0
								c-1.2,0.4-2.2,0.7-2.9,0.7c-1.1,0-1.7-0.6-1.7-1.9v-7.8H80c0.2,0,0.4-0.1,0.4-0.3l1.1-3.3c0-0.1,0-0.3,0-0.4
								C81.5,94.1,81.4,94,81.2,94z"/>
						</g>
						<g>
							<path class="st3" d="M95.7,95c-1.4-0.7-3-1.1-4.8-1.1c-1.8,0-3.4,0.4-4.8,1.1c-1.4,0.7-2.5,1.8-3.2,3.1
								c-0.8,1.3-1.1,3-1.1,4.8c0,1.8,0.4,3.5,1.1,4.8c0.8,1.3,1.8,2.4,3.2,3.1c1.4,0.7,3,1.1,4.8,1.1c1.8,0,3.4-0.4,4.8-1.1
								c1.4-0.7,2.5-1.8,3.3-3.1c0.8-1.3,1.2-3,1.2-4.8c0-1.8-0.4-3.5-1.2-4.8C98.2,96.7,97.1,95.7,95.7,95z M95.5,102.8
								c0,1.5-0.4,2.7-1.1,3.6c-0.7,0.9-1.9,1.4-3.4,1.4c-1.4,0-2.5-0.5-3.3-1.4c-0.8-0.9-1.2-2.1-1.2-3.6c0-1.4,0.4-2.6,1.2-3.5
								c0.8-0.9,1.9-1.4,3.3-1.4c1.4,0,2.5,0.4,3.3,1.3C95.1,100.1,95.5,101.3,95.5,102.8z"/>
						</g>
						<g>
							<path class="st3" d="M113.1,94.3c-0.7-0.3-1.5-0.4-2.2-0.4c-1.1,0-2.1,0.3-3,0.8c-0.8,0.4-1.4,1-2,1.7L106,94
								c0-0.3-0.2-0.4-0.4-0.4h-0.1h0l0,0l-3.8,0.9c-0.2,0.1-0.2,0.1-0.2,0.4s0,2.7,0,5v11.5c0,0.2,0.2,0.4,0.4,0.4h3.9
								c0.2,0,0.4-0.2,0.4-0.4v-11.1c0.5-0.7,1.1-1.1,1.7-1.5c0.6-0.3,1.3-0.5,2.1-0.5c0.6,0,1.1,0.1,1.5,0.2
								c0.4,0.1,0.7,0.4,0.9,0.7c0.1,0.1,0.2,0.2,0.3,0.2c0,0,0.1,0,0.1,0c0.1,0,0.2,0,0.2-0.3l0.3-4.5
								C113.4,94.5,113.3,94.4,113.1,94.3z"/>
						</g>
					</g>
				</g>
			</g>
			<g>
				<polygon class="st3" points="116.3,111.3 116.3,111.2 116.3,111.3 				"/>
				<path class="st3" d="M115.9,111.3L115.9,111.3L115.9,111.3C116,111.3,115.9,111.3,115.9,111.3L115.9,111.3z"/>
				<polygon class="st3" points="115.9,111.2 115.9,111.3 115.9,111.3 				"/>
				<polygon class="st3" points="116.2,111.3 115.9,111.3 116.2,111.3 				"/>
				<polygon class="st3" points="116.3,111.3 116.3,111.3 116.3,111.3 116.3,111.3 				"/>
				<path class="st3" d="M140.1,85.5h-4.9c-0.1,0-0.2,0.1-0.3,0.2l-6.5,10.4c0,0.1-0.1,0.1-0.1,0.1c-0.1,0-0.1,0-0.2-0.1L121,85.7
					c-0.1-0.1-0.2-0.1-0.3-0.1h-4.6c-0.1,0-0.2,0.1-0.2,0.2v25.5h0.1h0.2h0.1l0,0h0l0,0v0.1l-0.4,0c0,0.1,0.1,0.1,0.2,0.1h4.3
					c0.1,0,0.2-0.1,0.2-0.2V92.6l7.3,10.5c0.1,0.1,0.2,0.1,0.2,0.1c0,0,0.1,0,0.2-0.1l7.2-10.1v18.3c0,0.1,0.1,0.2,0.2,0.2h4.3
					c0.1,0,0.2-0.1,0.2-0.2V85.7C140.3,85.6,140.2,85.5,140.1,85.5z"/>
				<path class="st3" d="M116.3,111.3L116.3,111.3l-0.1,0v0H116h-0.1v0.1L116.3,111.3C116.2,111.3,116.2,111.3,116.3,111.3l-0.4,0
					c0,0,0,0,0,0.1L116.3,111.3L116.3,111.3z"/>
				<polygon class="st3" points="116.3,111.3 116.3,111.2 116.2,111.2 116.2,111.3 				"/>
				<path class="st3" d="M159.1,97.4c-0.7-1.4-1.7-2.4-2.9-3.2c-1.3-0.8-2.7-1.1-4.4-1.1c-1.7,0-3.2,0.4-4.6,1.2
					c-1.4,0.8-2.5,2-3.3,3.4c-0.8,1.4-1.2,3-1.2,4.8c0,2.1,0.6,3.9,1.7,5.5c1.1,1.5,2.7,2.6,4.6,3.2c0.9,0.3,2.1,0.5,3.5,0.5
					c1.3,0,2.5-0.1,3.6-0.4c1.1-0.3,2.1-0.7,2.8-1.2c0.1-0.1,0.2-0.2,0.2-0.4l0.3-3.7c0-0.2-0.1-0.3-0.2-0.1
					c-0.9,0.8-1.8,1.3-2.8,1.6c-1,0.3-2.1,0.5-3.3,0.5c-3.3,0-5.2-1.3-5.6-3.9h12.3c0.1,0,0.2-0.1,0.2-0.2c0.1-0.5,0.1-1.1,0.1-1.6
					C160.1,100.4,159.8,98.8,159.1,97.4z M148.1,100.1c0.1-0.2,0.1-0.3,0.2-0.4c0.2-0.4,0.4-0.8,0.7-1.1c0.1-0.1,0.3-0.3,0.4-0.4
					c0.6-0.6,1.5-0.8,2.6-0.8c0.5,0,1,0.1,1.4,0.2s0.8,0.4,1.1,0.7c0.3,0.3,0.5,0.5,0.6,0.9c0.1,0.3,0.2,0.7,0.2,1H148.1z"/>
				<path class="st3" d="M155.3,100.1c0-0.4-0.1-0.7-0.2-1C155.2,99.4,155.3,99.7,155.3,100.1z"/>
				<path class="st3" d="M148.2,99.7c0.2-0.4,0.4-0.8,0.7-1.1C148.6,98.9,148.4,99.2,148.2,99.7z"/>
			</g>
		</g>
		<g>
			<path class="st3" d="M29.2,120.2H33c0.6,0,0.9,0.3,0.9,0.9c0,0.6-0.3,0.9-0.9,0.9h-1.6v0.9c0,0.2,0,0.3,0,0.4h2
				c0.6,0,0.9,0.3,0.9,0.9c0,0.6-0.3,0.9-0.9,0.9h-2.2c0.5,0.3,1.3,0.7,2.3,1.3c0.3,0.2,0.5,0.4,0.5,0.6c0,0.2-0.2,0.4-0.5,0.7
				c-0.3,0.2-0.5,0.4-0.7,0.4c-0.2,0-0.4-0.1-0.7-0.3c-0.4-0.3-1-0.7-1.8-1.3c-0.6,0.8-1.4,1.6-2.5,2.2c-0.7,0.4-1.2,0.3-1.6-0.1
				c-0.6-0.6-0.3-1.2,0.7-1.7c0.8-0.5,1.4-1.2,1.8-1.9h-2.3c-0.6,0-0.9-0.3-0.9-0.9c0-0.6,0.3-0.9,0.9-0.9h0.4
				c-0.1-0.1-0.4-0.2-0.8-0.5c-0.2-0.1-0.3-0.2-0.3-0.4c0-0.2,0-0.3,0.2-0.5c0.5-0.6,0.9-1.4,1.3-2.2c0.2-0.6,0.6-0.9,1.3-0.7
				C29.2,119,29.4,119.4,29.2,120.2z M27.9,122.6c0,0-0.1,0.1-0.1,0.2c-0.1,0.1-0.1,0.1-0.1,0.2c-0.1,0.1-0.1,0.2,0.1,0.2h1.5
				c0-0.1,0-0.2,0-0.4V122h-1C28.2,122.1,28.1,122.3,27.9,122.6z M29.4,128.6h9.9c0.4,0,0.7,0.1,0.9,0.3c0.2,0.2,0.3,0.5,0.3,0.9
				v5.2c0,0.4-0.1,0.7-0.3,0.9c-0.2,0.2-0.5,0.3-0.9,0.3h-9.9c-0.4,0-0.7-0.1-0.9-0.3c-0.2-0.2-0.3-0.5-0.3-0.9v-5.2
				c0-0.4,0.1-0.7,0.3-0.9C28.7,128.7,29,128.6,29.4,128.6z M30.4,131.5h7.8v-0.7c0-0.3-0.2-0.5-0.5-0.5h-6.9
				c-0.3,0-0.5,0.2-0.5,0.5V131.5z M38.2,133.2h-7.8v0.8c0,0.3,0.2,0.5,0.5,0.5h6.9c0.3,0,0.5-0.2,0.5-0.5V133.2z M40.9,127.4h-4.7
				c-0.4,0-0.7-0.1-0.9-0.3c-0.2-0.2-0.3-0.5-0.3-0.9v-4.8c0-0.4,0.1-0.7,0.3-0.9c0.2-0.2,0.5-0.3,0.9-0.3h4.7
				c0.4,0,0.7,0.1,0.9,0.3c0.2,0.2,0.3,0.5,0.3,0.9v4.8c0,0.4-0.1,0.7-0.3,0.9C41.6,127.3,41.3,127.4,40.9,127.4z M37,122.6v2.3
				c0,0.3,0.2,0.5,0.5,0.5h2c0.3,0,0.4-0.2,0.4-0.5v-2.3c0-0.3-0.1-0.5-0.4-0.5h-2C37.2,122.2,37,122.3,37,122.6z"/>
			<path class="st3" d="M49.2,133.5c-0.4,1-0.9,1.7-1.5,2.2c-0.4,0.4-0.9,0.4-1.3,0.1c-0.7-0.5-0.8-1.1-0.1-1.7
				c0.4-0.5,0.7-0.9,0.9-1.3c0.3-0.6,0.7-0.8,1.4-0.6C49.3,132.5,49.5,132.9,49.2,133.5z M48,125.8h11.6c0.4,0,0.7,0.1,0.9,0.3
				c0.2,0.2,0.3,0.5,0.3,0.9v0.8h1c0.4,0,0.7,0.2,0.7,0.7c0,0.4-0.2,0.7-0.7,0.7h-1v1.1c0,0.3-0.1,0.6-0.3,0.7
				c-0.2,0.2-0.4,0.3-0.7,0.3h-4.8c0.1,0,0.2,0.1,0.3,0.2c0.1,0.1,0.2,0.2,0.3,0.2c0.5,0.4,0.4,0.9-0.1,1.3c-0.5,0.5-1,0.5-1.4,0
				c-0.7-0.6-1.2-1-1.5-1.1c-0.3-0.1-0.3-0.4,0-0.7h-4.9c-0.5,0-0.7-0.2-0.7-0.7c0-0.5,0.2-0.7,0.7-0.7h10.4c0.3,0,0.5-0.2,0.5-0.5
				v-0.3H46.5c-0.4,0-0.6-0.2-0.6-0.7c0-0.4,0.2-0.7,0.6-0.7h12.2v-0.4c0-0.2-0.1-0.3-0.3-0.3H48c-0.5,0-0.7-0.2-0.7-0.7
				C47.3,126,47.5,125.8,48,125.8z M47.4,125l-0.7,0c-0.5,0-0.7-0.2-0.8-0.7c0-0.3,0-0.5,0.1-0.6c0.1-0.1,0.3-0.2,0.5-0.2
				c1.1,0,1.9,0,2.4-0.1v-0.7h-1.7c-0.4,0-0.7-0.2-0.7-0.7c0-0.4,0.2-0.7,0.7-0.7h1.7v-0.4c0-0.2-0.1-0.2-0.2-0.2h-1.9
				c-0.4,0-0.7-0.2-0.7-0.7c0-0.4,0.2-0.6,0.7-0.6h2.1v0c0-0.2,0.1-0.4,0.3-0.6c0.2-0.1,0.5-0.2,0.7-0.2c0.3,0,0.5,0.1,0.7,0.2
				c0.2,0.1,0.3,0.3,0.3,0.6v0h1.9c0.4,0,0.7,0.2,0.7,0.6c0,0.4-0.2,0.7-0.7,0.7h-1.4c-0.3,0-0.5,0.2-0.5,0.5v0.1h1.7
				c0.4,0,0.7,0.2,0.7,0.7c0,0.4-0.2,0.7-0.7,0.7h-1.7v0.4c0,0.2,0.1,0.2,0.2,0.2l1.6-0.1c0.2,0,0.4,0,0.6,0.2
				c0.1,0.1,0.2,0.3,0.2,0.5c0,0.4-0.2,0.7-0.7,0.7c-0.4,0-1.1,0.1-1.9,0.1v0c0,0.2-0.1,0.4-0.4,0.5c-0.2,0.1-0.5,0.2-0.8,0.2
				c-0.2,0-0.4-0.1-0.6-0.2c-0.2-0.1-0.3-0.2-0.3-0.4v0L47.4,125z M56.3,136.4h-3.1c-1.2,0-2-0.2-2.4-0.5c-0.4-0.3-0.6-1-0.6-2V133
				c0-0.7,0.4-1.1,1.1-1.1c0.7,0,1.1,0.4,1.1,1.1v0.9c0,0.2,0.1,0.4,0.2,0.4c0.1,0.1,0.4,0.1,0.8,0.1H56c0.2,0,0.3,0,0.3,0
				c0.4-0.9,1-1.3,1.7-1c0.5,0.2,0.7,0.8,0.5,1.7c-0.2,0.5-0.4,0.8-0.8,1C57.4,136.3,56.9,136.4,56.3,136.4z M61.7,124.8H59v0
				c0,0.2-0.1,0.4-0.3,0.5c-0.2,0.1-0.4,0.2-0.7,0.2c-0.3,0-0.5-0.1-0.7-0.2c-0.2-0.1-0.3-0.3-0.3-0.5v0h-2.2
				c-0.4,0-0.7-0.2-0.7-0.7c0-0.4,0.2-0.7,0.7-0.7h1.7c0.3,0,0.5-0.2,0.5-0.5v-0.2h-1.7c-0.4,0-0.6-0.2-0.6-0.7
				c0-0.4,0.2-0.7,0.6-0.7h1.7v-0.4c0-0.2-0.1-0.2-0.2-0.2h-1.8c-0.4,0-0.7-0.2-0.7-0.7c0-0.4,0.2-0.6,0.7-0.6h2v0
				c0-0.2,0.1-0.4,0.3-0.6c0.2-0.1,0.4-0.2,0.7-0.2c0.3,0,0.5,0.1,0.7,0.2c0.2,0.1,0.3,0.3,0.3,0.6v0h2.3c0.4,0,0.7,0.2,0.7,0.6
				c0,0.4-0.2,0.7-0.7,0.7h-1.9c-0.3,0-0.5,0.2-0.5,0.5v0.1h2c0.4,0,0.6,0.2,0.6,0.7c0,0.4-0.2,0.7-0.6,0.7h-2v0.4
				c0,0.2,0.1,0.3,0.2,0.3h2.5c0.4,0,0.7,0.2,0.7,0.7C62.4,124.5,62.1,124.8,61.7,124.8z M60.5,135.3c-0.4-0.5-0.9-1-1.5-1.7
				c-0.6-0.6-0.5-1.1,0.2-1.5c0.4-0.2,0.9-0.2,1.3,0.1c0.8,0.7,1.5,1.4,2,2.1c0.2,0.3,0.2,0.6,0.2,0.8c-0.1,0.2-0.3,0.4-0.6,0.6
				C61.4,136,60.8,135.9,60.5,135.3z"/>
			<path class="st3" d="M80.8,121.2c0.1,0,0.2,0,0.3,0c0,0,0.1-0.1,0.1-0.2v0c0-0.2,0.1-0.3,0.3-0.4c0.1,0,0.3,0,0.5,0.1
				c0.2,0.1,0.4,0.3,0.5,0.6c0.1,0.3,0,0.6-0.1,0.8c-0.2,0.4-0.7,0.6-1.4,0.6h-0.8c-0.5,0-0.9-0.1-1.2-0.4c-0.2-0.2-0.3-0.5-0.3-0.8
				c0-0.4-0.2-0.7-0.5-0.7h-1.2c-0.1,0.7-0.3,1.2-0.8,1.7c-0.3,0.2-0.3,0.4,0,0.4h3.9c0.4,0,0.7,0.1,0.9,0.4
				c0.2,0.3,0.1,0.6-0.1,1.1c-0.3,0.5-0.7,1.1-1.3,1.5c0.4,0.1,0.9,0.3,1.5,0.4c0.5,0.1,0.8,0.2,0.9,0.5c0.1,0.3,0,0.6-0.2,1
				c0,0,0,0.1-0.1,0.1c0,0.1-0.1,0.1-0.1,0.1h0.1c0.5,0,0.7,0.2,0.7,0.7s-0.2,0.7-0.7,0.7h-5.2v0.6h3.8c0.4,0,0.7,0.1,0.9,0.3
				c0.2,0.2,0.3,0.5,0.3,0.9v3.8c0,0.4-0.1,0.7-0.3,0.9c-0.2,0.2-0.5,0.3-0.9,0.3H68c-0.4,0-0.7-0.1-0.9-0.3
				c-0.2-0.2-0.3-0.5-0.3-0.9v-3.8c0-0.4,0.1-0.7,0.3-0.9c0.2-0.2,0.5-0.3,0.9-0.3h3.4v-0.6h-4.9c-0.5,0-0.7-0.2-0.7-0.7
				s0.2-0.7,0.7-0.7h14.4c-1.2-0.2-2.2-0.5-3.1-1c-0.6,0.2-1.1,0.4-1.7,0.6c-0.8,0.2-1.3-0.1-1.7-0.7c0,0-0.1-0.1-0.3-0.3v0.5
				c0,0.3-0.1,0.4-0.4,0.4h-6.3c-0.4,0-0.7-0.1-0.9-0.3c-0.2-0.2-0.3-0.5-0.3-0.9v-5.5c0-0.4,0.1-0.7,0.3-0.9
				c0.2-0.2,0.5-0.3,0.9-0.3h5.9c0.4,0,0.6,0.2,0.6,0.6c0,0.4-0.2,0.7-0.6,0.7H70l0.3,0.1c0.1,0,0.2,0.1,0.1,0.2
				c0,0.1,0,0.2-0.1,0.3c0,0.1,0,0.1,0.1,0.1H73c0.3,0,0.5,0.2,0.5,0.5c0,0.3-0.2,0.5-0.5,0.5h-1.2v0.6h1.5c0.4,0,0.5,0.2,0.5,0.5
				c0,0.4-0.2,0.5-0.5,0.5h-1.2c0.3,0.2,0.6,0.4,1,0.6c0.2,0.1,0.3,0.3,0.3,0.6c0,0.2-0.1,0.5-0.3,0.7l-0.2,0.2h1
				c0.2,0,0.3,0.1,0.3,0.3v0.1c0.7-0.1,1.4-0.3,2.1-0.5c-0.2-0.2-0.5-0.4-0.7-0.7c-0.2-0.2-0.2-0.4-0.2-0.6c0.1-0.2,0.2-0.3,0.5-0.4
				l0.3-0.1h-0.8c-0.5,0-0.7-0.2-0.7-0.7v-0.3c-0.1-0.2-0.3-0.4-0.6-0.7c-0.4-0.3-0.2-0.6,0.5-1c0.4-0.3,0.6-0.7,0.6-1.3v-0.5
				c0-0.3,0.1-0.4,0.4-0.4h3.4c0.4,0,0.7,0.1,0.9,0.3c0.2,0.2,0.3,0.5,0.3,0.9v0.2c0,0,0,0.1,0,0.1s0,0.1,0,0.1s0,0,0,0.1
				c0,0,0,0.1,0,0.1c0,0,0,0,0,0.1c0,0,0,0,0,0c0,0,0,0,0.1,0c0,0,0.1,0,0.1,0H80.8z M68,121.1v4.5c0,0.3,0.2,0.5,0.5,0.5h0.6
				c-0.1-0.2-0.3-0.4-0.4-0.5c-0.3-0.3-0.2-0.5,0.3-0.6c0.5-0.2,1-0.5,1.2-0.9h-1.4c-0.3,0-0.5-0.2-0.5-0.5c0-0.4,0.2-0.5,0.5-0.5
				h0.4c-0.2-0.1-0.4-0.2-0.6-0.4c-0.3-0.2-0.4-0.4-0.1-0.7c0.3-0.4,0.6-0.8,0.7-1.2h-0.8C68.1,120.7,68,120.8,68,121.1z
				 M69.5,132.3c0.9-0.3,1.5-0.6,1.7-1.1h-2c-0.3,0-0.5,0.2-0.5,0.5v1.8h0.9c-0.1-0.2-0.3-0.4-0.5-0.6
				C68.9,132.5,69,132.3,69.5,132.3z M79.3,134.5H68.8v0.3c0,0.1,0.1,0.2,0.2,0.2h9.8C79.1,135.1,79.3,134.9,79.3,134.5L79.3,134.5z
				 M69.7,122.4c0,0.1-0.1,0.2-0.2,0.3c-0.1,0.1-0.2,0.2-0.2,0.3h1.2v-0.6H69.7z M69.4,126.1h3.1c0.3,0,0.4-0.1,0.2-0.2
				c-0.5-0.4-1-0.8-1.4-1C70.8,125.3,70.2,125.7,69.4,126.1z M70.5,133.4h8.8v-0.5h-2.5c-0.8,0-1.4-0.1-1.7-0.3
				c-0.3-0.2-0.4-0.6-0.4-1.2v-0.2h-1.6C72.8,132.2,72,132.9,70.5,133.4z M73.1,130h1.6v-0.6h-1.6V130z M76.4,131.4
				c0,0.2,0,0.3,0.1,0.4c0.1,0,0.2,0.1,0.5,0.1h1.8c0.3,0,0.5,0,0.5-0.1h0v-0.3c0-0.2-0.1-0.2-0.2-0.2h-2.6V131.4z M78,125.1
				c0.4-0.2,0.7-0.6,1.1-1h-2.2C77.2,124.5,77.6,124.8,78,125.1z"/>
			<path class="st3" d="M101.6,122.2h-6.2l0.7,0.1c0.5,0.1,0.6,0.4,0.2,1.1h5.2c0.6,0,0.8,0.3,0.8,0.8c0,0.6-0.3,0.9-0.8,0.9h-0.4
				l0.7,0.5c0.4,0.3,0.4,0.6,0.1,0.9l-0.8,0.6c0.1,0,0.2,0.1,0.3,0.2s0.2,0.1,0.3,0.2c0.4,0.2,0.7,0.4,0.7,0.6
				c0.1,0.2,0,0.5-0.3,0.9c-0.4,0.5-0.9,0.5-1.6,0.1v1.9c0,0.4-0.1,0.7-0.3,0.9c-0.2,0.2-0.5,0.3-0.9,0.3h-2.1v2.4
				c0,0.5-0.1,0.9-0.2,1.1c-0.1,0.2-0.3,0.4-0.7,0.6c-0.4,0.2-1,0.3-1.7,0.3c-0.7,0-1.1-0.2-1.3-0.7c-0.1-0.4-0.1-0.7,0.1-0.8
				c0.2-0.2,0.5-0.2,1-0.2h0.3c0.2,0,0.3-0.1,0.3-0.3v-2.4h-2c-0.4,0-0.7-0.1-0.9-0.3c-0.2-0.2-0.3-0.5-0.3-0.9v-1.9
				c-0.7,0.5-1.2,0.6-1.4,0.2c-0.2-0.2-0.4-0.5-0.7-0.8c-0.2,3.1-0.9,5.4-2,7.2c-0.3,0.3-0.5,0.5-0.7,0.5c-0.2,0-0.5-0.1-0.8-0.4
				c-0.5-0.5-0.5-1-0.1-1.7c0.7-1.1,1.2-2.4,1.4-4c-0.1,0.1-0.3,0.2-0.5,0.3c-0.2,0.1-0.4,0.2-0.5,0.3c-0.7,0.4-1.2,0.2-1.4-0.5
				c-0.1-0.3-0.1-0.6,0-0.8c0.1-0.2,0.2-0.4,0.5-0.5c0.2-0.1,0.6-0.3,1.1-0.5c0.5-0.2,0.8-0.4,0.9-0.5c0-0.3,0-0.8,0-1.5v-0.7
				l-0.9,0.4c-0.2,0.1-0.5,0.1-0.6,0c-0.2-0.1-0.3-0.2-0.3-0.4c-0.1-0.7-0.3-1.4-0.6-2.3c-0.2-0.6,0-1,0.5-1.2
				c0.5-0.2,0.9,0,1.1,0.5c0.4,0.9,0.6,1.8,0.7,2.5v-3.8c0-0.4,0.1-0.7,0.3-0.9c0.2-0.2,0.5-0.3,0.9-0.3h4.7V120
				c0-0.8,0.4-1.2,1.2-1.2c0.8,0,1.2,0.4,1.2,1.2v0.3h5.7c0.6,0,1,0.3,1,1C102.6,121.9,102.3,122.2,101.6,122.2z M94.7,122.2h-4.6
				c-0.3,0-0.4,0.2-0.4,0.5v3.8c0,0.3,0,0.9,0,1.6c0.6-0.3,1.1-0.6,1.6-1c-0.1-0.1-0.3-0.2-0.4-0.4c-0.5-0.3-0.5-0.7,0-1.1
				c0.3-0.3,0.6-0.3,1-0.1c0.2,0.1,0.5,0.3,0.7,0.5c0.3-0.3,0.5-0.6,0.8-0.9h-2.1c-0.6,0-0.8-0.3-0.8-0.9c0-0.6,0.3-0.8,0.8-0.8h3.1
				C94.5,122.9,94.7,122.5,94.7,122.2z M93.1,134c-0.4,0.6-0.9,1.2-1.5,1.8c-0.4,0.4-0.9,0.4-1.4,0.1c-0.4-0.3-0.5-0.6-0.5-0.8
				c0-0.2,0.2-0.5,0.6-0.8c0.4-0.4,0.7-0.7,0.9-1c0.3-0.5,0.8-0.6,1.3-0.5C93.4,132.9,93.6,133.3,93.1,134z M93.7,128.9h4.9v-0.7
				h-4.9V128.9z M94,130.9h4.1c0.3,0,0.5-0.2,0.5-0.5v-0.3h-4.9v0.4C93.7,130.8,93.8,130.9,94,130.9z M94.4,126.8H98
				c-0.4-0.5-0.8-1.1-1.1-1.7h-1.3C95.3,125.7,94.9,126.3,94.4,126.8z M99.5,134.9c-0.1-0.1-0.2-0.2-0.3-0.4s-0.3-0.3-0.3-0.4
				c-0.5-0.5-0.5-1,0.2-1.3c0.4-0.2,0.8-0.2,1.2,0.2c0.6,0.6,1.2,1.2,1.6,1.7c0.2,0.3,0.3,0.5,0.2,0.7c-0.1,0.2-0.3,0.4-0.6,0.5
				c-0.6,0.3-1.1,0.2-1.4-0.3c-0.1-0.1-0.2-0.2-0.3-0.4C99.7,135.1,99.6,134.9,99.5,134.9z M100.5,125.6c0,0,0.1-0.1,0.3-0.2
				c0.1-0.1,0.2-0.2,0.3-0.3h-2.1c0.2,0.3,0.6,0.7,1,1.1C100.1,126.1,100.3,125.9,100.5,125.6z"/>
			<path class="st3" d="M121.3,135.8h-15.1c-0.7,0-1.1-0.4-1.1-1.1c0-0.7,0.4-1.1,1.1-1.1h9.2c0.2-1.2,0.3-2.1,0.4-2.5h-5.6v0
				c-0.1,0.6-0.6,0.8-1.2,0.8c-0.5,0-0.8-0.1-1-0.3c-0.2-0.2-0.2-0.5-0.1-0.9c0.7-2.7,1.4-5.7,1.9-8.9h-2.9c-0.7,0-1-0.4-1-1.1
				c0-0.7,0.3-1,1-1h14c0.7,0,1,0.3,1,1c0,0.7-0.3,1.1-1,1.1h-8.6c-0.1,0.3-0.2,1.1-0.4,2.1h6c0.4,0,0.7,0.1,0.9,0.4
				c0.2,0.2,0.3,0.6,0.3,1c-0.3,3-0.7,5.8-1.1,8.3h3.4c0.7,0,1,0.4,1,1.1C122.4,135.5,122,135.8,121.3,135.8z M110.7,129.2h5.4
				c0.1-0.5,0.2-1.5,0.4-3.1h-5.1c-0.1,0.4-0.2,1-0.4,1.8C110.8,128.7,110.7,129.1,110.7,129.2z"/>
			<path class="st3" d="M138.2,123.1h2.9c0.3,0,0.5,0.1,0.7,0.4s0.2,0.7,0.2,1.4c-0.1,3.8-0.2,6.4-0.3,7.9c-0.1,1.5-0.3,2.4-0.6,2.8
				c-0.3,0.4-0.6,0.7-1,0.8c-0.3,0.1-0.9,0.2-1.6,0.2c-0.4,0-0.7-0.1-1-0.3c-0.3-0.2-0.4-0.5-0.5-0.8c0,0,0,0,0,0c0,0,0,0,0,0
				c-0.1-0.3-0.1-0.6,0-0.7c0.1-0.2,0.4-0.2,0.8-0.2c0.2,0,0.4,0,0.7,0c0.3,0,0.5-0.1,0.7-0.3c0.4-0.5,0.6-3.2,0.7-8.1
				c0-0.4,0-0.6-0.1-0.7c-0.1-0.1-0.2-0.2-0.4-0.2h-1.2c-0.1,2.5-0.4,4.6-0.9,6.3s-1.3,3.2-2.4,4.4c-0.3,0.3-0.6,0.4-0.9,0.4
				c-0.3,0-0.6-0.2-0.9-0.5c-0.1-0.2-0.3-0.3-0.5-0.5c-4,0.4-6.2,0.6-6.7,0.7c-0.3,0-0.5,0-0.7-0.2c-0.1-0.1-0.2-0.4-0.3-0.7
				c0-0.3,0-0.6,0.1-0.8c0.1-0.2,0.3-0.3,0.7-0.3c0,0,1-0.1,3-0.2v-1.2h-2.5c-0.5,0-0.8-0.3-0.8-0.8s0.3-0.8,0.8-0.8h2.5v-0.7h-2
				c-0.4,0-0.7-0.1-0.9-0.3c-0.2-0.2-0.3-0.5-0.3-0.9v-3.4c0-0.4,0.1-0.7,0.3-0.9c0.2-0.2,0.5-0.3,0.9-0.3h2v-0.7h-2.9
				c-0.5,0-0.8-0.3-0.8-0.8c0-0.5,0.3-0.8,0.8-0.8h2.9v-0.8c-1.1,0.1-2,0.1-2.5,0.1c-0.5,0-0.8-0.2-1-0.7c-0.2-0.6,0.1-0.9,0.8-1
				c2.4-0.2,4.6-0.4,6.5-0.7c0.2,0,0.4,0,0.6,0.1c0.1,0.1,0.3,0.2,0.4,0.5c0.4,0.7,0.2,1.1-0.5,1.2c-0.9,0.1-1.6,0.2-2.3,0.3v0.9
				h2.7c0.3,0,0.6,0.1,0.7,0.3c0.2,0.2,0.3,0.4,0.3,0.7v0.1h1.8c0-0.6,0-1.6,0-2.9c0-0.7,0.4-1.1,1.1-1.1s1.1,0.4,1.1,1.1
				C138.3,120.9,138.3,121.8,138.2,123.1z M128.7,125.8h-1.2c-0.2,0-0.3,0.1-0.3,0.3v0.5h1.5V125.8z M128.7,128h-1.5v0.5
				c0,0.2,0.1,0.4,0.4,0.4h1.1V128z M134.3,123.7h-3.6v0.7h2.1c0.4,0,0.7,0.1,0.9,0.3c0.2,0.2,0.3,0.5,0.3,0.9v3.4
				c0,0.4-0.1,0.7-0.3,0.9c-0.2,0.2-0.5,0.3-0.9,0.3h-2.1v0.7h2.6c0.5,0,0.8,0.3,0.8,0.8s-0.3,0.8-0.8,0.8h-2.6v1
				c0.8,0,1.9-0.1,3.3-0.3c0.7-1,1.2-2.1,1.5-3.5c0.3-1.3,0.5-2.9,0.6-4.8h-0.9c-0.5,0-0.8-0.3-0.8-0.8V123.7z M131.8,125.8h-1.1
				v0.8h1.5v-0.5C132.2,126,132,125.8,131.8,125.8z M130.7,128.9h1.2c0.2,0,0.3-0.1,0.3-0.3V128h-1.5V128.9z"/>
		</g>
	</g>
</g>
</svg>
