<svg width="129" height="24" viewBox="0 0 129 24" fill="none" xmlns="http://www.w3.org/2000/svg">
<path d="M16.8039 3.50875C14.5994 1.76877 11.3267 0.886963 7.08306 0.886963H0.624383C0.461669 0.886963 0.367188 0.981443 0.367188 1.14416V22.9583C0.367188 23.121 0.461669 23.2155 0.624383 23.2155H7.31926C11.5052 23.2155 14.7201 22.2733 16.8774 20.4152C19.0373 18.5545 20.1343 15.6939 20.1343 11.92C20.1343 8.14609 19.0136 5.25398 16.8013 3.51137L16.8039 3.50875ZM15.8433 11.9174C15.8433 14.3266 15.2292 16.1899 14.0194 17.4575C12.8095 18.7251 10.7861 19.3681 8.00423 19.3681H4.5715V4.73173H8.00423C10.6313 4.73173 12.6153 5.28023 13.9065 6.36411C15.1925 7.44537 15.8433 9.31132 15.8433 11.9147V11.9174Z" fill="#17214C"/>
<path d="M32.6842 9.05154C31.5216 8.45055 30.1727 8.14612 28.6768 8.14612C27.1809 8.14612 25.8057 8.45055 24.643 9.05154C23.4752 9.65516 22.5566 10.537 21.9163 11.6786C21.2786 12.8149 20.9531 14.1796 20.9531 15.7333C20.9531 17.2869 21.2759 18.6464 21.9163 19.7723C22.5566 20.9034 23.4726 21.7826 24.6404 22.3835C25.803 22.9845 27.1599 23.289 28.6741 23.289C30.1884 23.289 31.519 22.9845 32.6816 22.3835C33.8495 21.7799 34.7759 20.8981 35.4346 19.7591C36.0934 18.6228 36.4267 17.2659 36.4267 15.7307C36.4267 14.1954 36.0934 12.8123 35.4346 11.676C34.7759 10.537 33.8495 9.65516 32.6816 9.05154H32.6842ZM28.6768 19.893C27.4932 19.893 26.5562 19.4967 25.8896 18.7172C25.2152 17.9299 24.874 16.9064 24.874 15.6756C24.874 14.4447 25.223 13.4632 25.9133 12.6942C26.5982 11.9305 27.5273 11.5421 28.6741 11.5421C29.821 11.5421 30.7789 11.92 31.4665 12.668C32.1567 13.4186 32.5058 14.4316 32.5058 15.6756C32.5058 16.9195 32.1961 17.9562 31.5846 18.7356C30.9836 19.5046 30.0047 19.893 28.6768 19.893Z" fill="#17214C"/>
<path d="M50.6445 9.54755C50.0934 9.14864 49.2641 8.7996 48.1802 8.51091C47.2721 8.26947 46.2749 8.14612 45.2146 8.14612C45.0099 8.14612 44.7973 8.15137 44.5874 8.15924C43.1413 8.21435 41.7583 8.68675 40.4723 9.55805C39.1837 10.432 38.294 11.5264 37.8216 12.8071C37.4831 13.7256 37.3125 14.694 37.3125 15.6887C37.3125 17.1505 37.6825 18.5204 38.4148 19.7591C39.1496 21.0005 40.1967 21.9453 41.5326 22.5646C42.6217 23.0528 43.9024 23.2995 45.3406 23.2995C46.2539 23.2995 47.1383 23.1945 47.9702 22.9898C48.8048 22.7825 49.5423 22.478 50.1642 22.0817C50.2876 21.9873 50.348 21.8665 50.348 21.7248L50.4582 18.7382C50.4582 18.4286 50.2482 18.4128 50.2062 18.4128C50.1406 18.4128 50.0698 18.4364 49.991 18.4863L49.9805 18.4915L49.9727 18.4994C49.4373 18.9456 48.7943 19.2894 48.0595 19.5229C47.322 19.7565 46.5635 19.8746 45.8077 19.8746C44.9285 19.8746 44.1202 19.7198 43.4038 19.4153C42.7923 19.1529 42.2753 18.6884 41.8711 18.0375C41.4643 17.384 41.257 16.6203 41.257 15.7674C41.257 15.4446 41.3016 15.0562 41.3935 14.6074C41.6218 13.6049 42.1388 12.8333 42.9314 12.3137C43.7318 11.7888 44.6451 11.5211 45.6424 11.5211C47.0543 11.5211 48.3613 12.0381 49.5265 13.0616C49.6026 13.1246 49.6735 13.1561 49.7443 13.1561C49.8204 13.1561 49.9543 13.122 50.0094 12.8989L50.7836 9.93597C50.8151 9.77325 50.7652 9.63941 50.6419 9.54493L50.6445 9.54755Z" fill="#17214C"/>
<path d="M62.4872 8.25373H58.38V5.6267C58.38 5.42987 58.2514 5.30127 58.0545 5.30127H56.0049C55.8474 5.30127 55.7241 5.38787 55.6637 5.54009L54.5142 8.25373H52.4042C52.2362 8.25373 52.1129 8.35346 52.0814 8.52142L51.3072 11.3348V11.3453L51.3019 11.3558C51.2862 11.4739 51.3072 11.5684 51.3649 11.6366C51.4017 11.6812 51.4751 11.7337 51.5985 11.7337H54.404V18.9561C54.404 20.3444 54.8265 21.4283 55.6611 22.1789C56.4904 22.9242 57.5953 23.2995 58.939 23.2995C60.4638 23.2995 61.671 22.9714 62.5265 22.3258L62.5344 22.3179L62.5423 22.3101C62.6105 22.2418 62.6446 22.1421 62.6446 22.003V19.6752C62.6446 19.4337 62.4845 19.3497 62.3455 19.3497H62.2615L62.2352 19.3602C61.2248 19.7408 60.4034 19.9324 59.7972 19.9324C58.8287 19.9324 58.3773 19.4285 58.3773 18.3472V11.7363H61.4584C61.6395 11.7363 61.7681 11.6418 61.8075 11.4818L62.7732 8.66576C62.81 8.54242 62.7969 8.44531 62.7417 8.3692C62.705 8.31934 62.6289 8.25898 62.4845 8.25898L62.4872 8.25373Z" fill="#17214C"/>
<path d="M74.6608 9.04629C73.4982 8.4453 72.1492 8.14087 70.6533 8.14087C69.1574 8.14087 67.7822 8.4453 66.6196 9.04629C65.4517 9.6499 64.5332 10.5317 63.8928 11.6733C63.2551 12.8097 62.9297 14.1744 62.9297 15.728C62.9297 17.2817 63.2525 18.6411 63.8928 19.7696C64.5332 20.9008 65.4491 21.7799 66.617 22.3809C67.7796 22.9819 69.1364 23.2863 70.6507 23.2863C72.165 23.2863 73.4956 22.9819 74.6582 22.3809C75.826 21.7799 76.7498 20.8955 77.4112 19.7565C78.0699 18.6201 78.4032 17.2633 78.4032 15.728C78.4032 14.1928 78.0699 12.8097 77.4112 11.6733C76.7525 10.5343 75.826 9.65253 74.6582 9.04892L74.6608 9.04629ZM74.4823 15.6703C74.4823 16.9195 74.1727 17.9509 73.5612 18.7304C72.9602 19.4993 71.9813 19.8877 70.6533 19.8877C69.4697 19.8877 68.5328 19.4914 67.8662 18.712C67.1917 17.9247 66.8506 16.9012 66.8506 15.6703C66.8506 14.4395 67.1996 13.4579 67.8898 12.689C68.5748 11.9253 69.5038 11.5369 70.6507 11.5369C71.7976 11.5369 72.7555 11.9148 73.4431 12.6627C74.1307 13.4133 74.4823 14.4263 74.4823 15.6703Z" fill="#17214C"/>
<path d="M89.3356 8.46622C88.7031 8.25627 88.089 8.14867 87.5038 8.14867C86.6115 8.14867 85.7612 8.36912 84.9738 8.80477C84.3361 9.15907 83.7797 9.64721 83.31 10.2587L83.3966 8.20378C83.3966 7.95709 83.2365 7.87048 83.0974 7.87048H83.0082L79.7959 8.62631C79.6069 8.6893 79.5859 8.73391 79.5859 9.00423V22.9635C79.5859 23.1603 79.7145 23.2889 79.9114 23.2889H83.2365C83.4333 23.2889 83.5619 23.1603 83.5619 22.9635V13.5733C84.0159 13.0248 84.5093 12.6049 85.029 12.3267C85.5565 12.0459 86.1653 11.9016 86.8372 11.9016C87.3489 11.9016 87.7662 11.9672 88.0785 12.0958C88.3803 12.2218 88.6506 12.4212 88.8632 12.702C88.9551 12.8227 89.0207 12.8779 89.0942 12.8752C89.123 12.8752 89.1677 12.8726 89.1965 12.8595C89.2464 12.8385 89.3514 12.8175 89.354 12.5708L89.5744 8.81265C89.5744 8.64468 89.4905 8.52396 89.3356 8.46098V8.46622Z" fill="#17214C"/>
<path d="M91.7422 22.8113V22.869H91.7606C91.7553 22.848 91.7422 22.8349 91.7422 22.8113Z" fill="#00215A"/>
<path d="M92.002 22.8113H91.7422L92.002 22.8165C92.002 22.8165 92.002 22.8139 92.002 22.8113Z" fill="#00215A"/>
<path d="M92.0547 22.7877L92.0599 22.8166L92.0547 22.7877Z" fill="#00215A"/>
<path d="M112.131 1.07068H107.987C107.89 1.07068 107.811 1.12054 107.754 1.21765L102.258 9.97268C102.24 10.0304 102.203 10.0567 102.156 10.0462C102.106 10.0357 102.064 10.012 102.025 9.97268L96.0305 1.18878C95.9727 1.11005 95.894 1.07068 95.7969 1.07068H91.918C91.7999 1.07068 91.7422 1.12842 91.7422 1.24651V22.7536H92.0493L92.0571 22.7877L92.0624 22.8192V22.8795L91.7632 22.8743C91.7842 22.9451 91.8288 22.9924 91.9206 22.9924H95.5633C95.6814 22.9924 95.7392 22.9347 95.7392 22.8166V7.07008L101.88 15.9143C101.959 15.9931 102.027 16.0324 102.085 16.0324C102.124 16.0324 102.182 15.9931 102.261 15.9143L108.313 7.36402V22.8166C108.313 22.9347 108.37 22.9924 108.489 22.9924H112.131C112.249 22.9924 112.307 22.9347 112.307 22.8166V1.24651C112.307 1.12842 112.249 1.07068 112.131 1.07068Z" fill="#17214C"/>
<path d="M92.0624 22.8165L92.0571 22.7877H91.9443V22.7535H91.7422V22.8113H92.002C92.002 22.8113 92.002 22.8139 92.002 22.8165L91.7422 22.8113C91.7422 22.8375 91.7553 22.8506 91.7606 22.869L92.0598 22.8743V22.8139L92.0624 22.8165Z" fill="#00215A"/>
<path d="M91.9453 22.7535V22.7877H92.0582L92.0503 22.7535H91.9453Z" fill="#00215A"/>
<path d="M128.13 11.1275C127.553 9.97274 126.734 9.06995 125.676 8.42434C124.619 7.77874 123.375 7.45593 121.944 7.45593C120.514 7.45593 119.218 7.80498 118.052 8.49782C116.887 9.19329 115.971 10.1486 115.305 11.3611C114.638 12.5762 114.305 13.9277 114.305 15.4158C114.305 17.1977 114.774 18.7304 115.714 20.0137C116.654 21.2971 117.958 22.192 119.622 22.7011C120.404 22.9557 121.385 23.0843 122.558 23.0843C123.634 23.0843 124.655 22.9662 125.613 22.7326C126.574 22.4964 127.345 22.1553 127.933 21.7039C128.03 21.6251 128.08 21.5175 128.08 21.3811L128.316 18.237C128.316 18.0612 128.248 18.0218 128.112 18.1189C127.387 18.7645 126.603 19.2212 125.76 19.4862C124.918 19.7513 123.997 19.8825 122.999 19.8825C120.217 19.8825 118.651 18.775 118.299 16.5626H128.7C128.818 16.5626 128.886 16.5049 128.904 16.3868C128.965 15.938 128.994 15.4945 128.994 15.0641C128.994 13.5944 128.705 12.2822 128.127 11.1275H128.13ZM124.973 13.3924H118.842C119.071 12.6943 119.422 12.1379 119.889 11.7363C120.435 11.2718 121.175 11.0356 122.091 11.0356C123.007 11.0356 123.703 11.2928 124.235 11.7993C124.697 12.2376 124.939 12.7599 124.973 13.3924Z" fill="#17214C"/>
</svg>
