<?xml version="1.0" encoding="utf-8"?>
<!-- Generator: Adobe Illustrator 27.5.0, SVG Export Plug-In . SVG Version: 6.00 Build 0)  -->
<svg version="1.1" id="圖層_1" xmlns="http://www.w3.org/2000/svg" xmlns:xlink="http://www.w3.org/1999/xlink" x="0px" y="0px"
	 viewBox="0 0 49 50" style="enable-background:new 0 0 49 50;" xml:space="preserve">
<style type="text/css">
	.st0{fill:url(#SVGID_1_);}
	.st1{fill:#FFFFFF;}
	.st2{fill:url(#SVGID_00000125565245655763272390000002196350057158570173_);}
	.st3{fill:url(#SVGID_00000098939312412294194600000012334825270482004123_);}
	.st4{fill:url(#SVGID_00000179645688933614158660000017219221468877229717_);}
</style>
<g>
	<g>
		<g>
			<linearGradient id="SVGID_1_" gradientUnits="userSpaceOnUse" x1="24.5" y1="48.9999" x2="24.5" y2="1">
				<stop  offset="0" style="stop-color:#17C3EB"/>
				<stop  offset="0.1962" style="stop-color:#2BC8ED"/>
				<stop  offset="0.5029" style="stop-color:#45CFF0"/>
				<stop  offset="0.7801" style="stop-color:#55D4F1"/>
				<stop  offset="1" style="stop-color:#5AD5F2"/>
			</linearGradient>
			<path class="st0" d="M39.7,1H27.5H9.3C4.4,1,0.5,4.9,0.5,9.8v30.4c0,4.9,3.9,8.8,8.8,8.8h30.4c4.9,0,8.8-3.9,8.8-8.8V9.8
				C48.5,4.9,44.6,1,39.7,1z"/>
		</g>
	</g>
	<g>
		<path class="st1" d="M33.5,16l-2.1,0c-1,0-2,0.5-2.5,1.4l-1.4,1.6c-0.5,0.6-1.1,1-1.9,1.2c-0.3,0.1-0.7,0.1-1.1,0.1
			c-0.4,0-0.8-0.1-1.1-0.2c-0.7-0.2-1.4-0.6-1.9-1.2l-1.4-1.6c-0.5-0.9-1.5-1.4-2.5-1.4l-2.1,0c-2.3,0-4.1,1.9-4.1,4.1l0,13.9
			c0,1.6,1.3,2.9,2.9,2.9l20.3,0v0h0c1.6,0,2.9-1.3,2.9-2.9l0-13.9C37.6,17.9,35.8,16.1,33.5,16z M26.7,24.6c0.4,0,0.6,0.5,0.6,1.1
			c0,0.6-0.3,1.1-0.6,1.1s-0.6-0.5-0.6-1.1C26.1,25.1,26.4,24.6,26.7,24.6z M22.3,24.6c0.4,0,0.6,0.5,0.6,1.1c0,0.6-0.3,1.1-0.6,1.1
			c-0.4,0-0.6-0.5-0.6-1.1C21.6,25.1,21.9,24.6,22.3,24.6z M31.4,28.8c0,0.1-0.1,0.2-0.2,0.3c0,0,0,0,0,0.1c0,0.1,0,0.2-0.1,0.3
			c0,0.2-0.1,0.3-0.1,0.5c-0.3,1.1-0.8,2-1.7,2.8c-1.1,1-2.4,1.5-3.8,1.7c-0.3,0-0.7,0.1-1,0.1c-1.8,0-3.4-0.6-4.7-1.8
			c-1.1-1-1.7-2.1-1.8-3.5c0,0,0-0.1,0-0.1l0-0.1c0,0,0,0,0-0.1c0,0,0,0-0.1,0c-0.1,0-0.2,0-0.2,0c-0.1,0-0.1-0.1-0.1-0.2
			c0-0.1,0-0.2,0.1-0.3c0.1-0.2,0.3-0.4,0.6-0.4c0.1,0,0.2,0,0.3,0.1c0.1,0.1,0.1,0.2,0,0.3c0,0.1-0.1,0.2-0.2,0.3
			c-0.1,0.1-0.1,0.1-0.1,0.3c0,0.1,0.1,0.2,0.1,0.3c0.1,0.3,0.2,0.6,0.3,0.8c0.6,1.3,1.7,2.2,3.1,2.8c0.9,0.4,1.8,0.5,2.8,0.5
			c1.7,0,3.1-0.5,4.3-1.4c0.9-0.7,1.5-1.6,1.9-2.7c0-0.1,0-0.1,0.1-0.2l0-0.1c0-0.1,0-0.1-0.1-0.2c-0.1-0.1-0.2-0.1-0.3-0.2
			c-0.1-0.1-0.1-0.3,0-0.4c0.1-0.1,0.2-0.2,0.3-0.1c0,0,0.1,0,0.1,0.1c0.1,0.1,0.3,0.2,0.4,0.3C31.4,28.5,31.4,28.7,31.4,28.8z"/>
		<path class="st1" d="M23.8,18.6h1.5c0.2,0,0.4-0.2,0.4-0.4v-0.9h0.9c0.2,0,0.4-0.2,0.4-0.4v-1.5c0-0.2-0.2-0.4-0.4-0.4h-0.9v-0.9
			c0-0.2-0.2-0.4-0.4-0.4h-1.5c-0.2,0-0.4,0.2-0.4,0.4V15h-0.9c-0.2,0-0.4,0.2-0.4,0.4v1.5c0,0.2,0.2,0.4,0.4,0.4h0.9v0.9
			C23.4,18.4,23.5,18.6,23.8,18.6z"/>
		<path class="st1" d="M18.2,14.6c0.1,0,0.2,0,0.3-0.1c0.1-0.1,0.2-0.2,0.3-0.2c0.1-0.1,0.2-0.2,0.4-0.2c0.6-0.5,1.1-0.8,1.9-1.2
			c2.3-1.2,4.3-1.2,6.6,0c0.9,0.4,1.3,0.7,2.1,1.2l0.2,0.1c0.2,0.1,0.3,0.2,0.5,0.3c0.1,0.1,0.2,0.1,0.2,0.1c0,0,0.1,0,0.1,0
			c0.1,0,0.2-0.1,0.3-0.2c0.1-0.2,0.1-0.5-0.1-0.6l-0.1-0.1c-1-0.7-1.9-1.3-2.7-1.9c-1.1-0.7-2.4-1.1-3.8-1.1
			c-1.4,0-2.5,0.3-3.6,1.1c-0.8,0.5-1.5,1.1-2.2,1.6c-0.2,0.2-0.4,0.3-0.6,0.4c-0.2,0.1-0.2,0.4-0.1,0.6
			C18,14.6,18.1,14.6,18.2,14.6z"/>
	</g>
	
		<linearGradient id="SVGID_00000006697466159855053240000010426878060211060372_" gradientUnits="userSpaceOnUse" x1="24.4432" y1="34.524" x2="24.4432" y2="28.059">
		<stop  offset="0" style="stop-color:#17C3EB"/>
		<stop  offset="0.1962" style="stop-color:#2BC8ED"/>
		<stop  offset="0.5029" style="stop-color:#45CFF0"/>
		<stop  offset="0.7801" style="stop-color:#55D4F1"/>
		<stop  offset="1" style="stop-color:#5AD5F2"/>
	</linearGradient>
	<path style="fill:url(#SVGID_00000006697466159855053240000010426878060211060372_);" d="M31.4,28.8c0,0.1-0.1,0.2-0.2,0.3
		c0,0,0,0,0,0.1c0,0.1,0,0.2-0.1,0.3c0,0.2-0.1,0.3-0.1,0.5c-0.3,1.1-0.8,2-1.7,2.8c-1.1,1-2.4,1.5-3.8,1.7c-0.3,0-0.7,0.1-1,0.1
		c-1.8,0-3.4-0.6-4.7-1.8c-1.1-1-1.7-2.1-1.8-3.5c0,0,0-0.1,0-0.1l0-0.1c0,0,0,0,0-0.1c0,0,0,0-0.1,0c-0.1,0-0.2,0-0.2,0
		c-0.1,0-0.1-0.1-0.1-0.2c0-0.1,0-0.2,0.1-0.3c0.1-0.2,0.3-0.4,0.6-0.4c0.1,0,0.2,0,0.3,0.1c0.1,0.1,0.1,0.2,0,0.3
		c0,0.1-0.1,0.2-0.2,0.3c-0.1,0.1-0.1,0.1-0.1,0.3c0,0.1,0.1,0.2,0.1,0.3c0.1,0.3,0.2,0.6,0.3,0.8c0.6,1.3,1.7,2.2,3.1,2.8
		c0.9,0.4,1.8,0.5,2.8,0.5c1.7,0,3.1-0.5,4.3-1.4c0.9-0.7,1.5-1.6,1.9-2.7c0-0.1,0-0.1,0.1-0.2l0-0.1c0-0.1,0-0.1-0.1-0.2
		c-0.1-0.1-0.2-0.1-0.3-0.2c-0.1-0.1-0.1-0.3,0-0.4c0.1-0.1,0.2-0.2,0.3-0.1c0,0,0.1,0,0.1,0.1c0.1,0.1,0.3,0.2,0.4,0.3
		C31.4,28.5,31.4,28.7,31.4,28.8z"/>
	
		<linearGradient id="SVGID_00000149379487858750674230000007522996610954657455_" gradientUnits="userSpaceOnUse" x1="26.7106" y1="26.8318" x2="26.7106" y2="24.6082">
		<stop  offset="0" style="stop-color:#17C3EB"/>
		<stop  offset="0.1962" style="stop-color:#2BC8ED"/>
		<stop  offset="0.5029" style="stop-color:#45CFF0"/>
		<stop  offset="0.7801" style="stop-color:#55D4F1"/>
		<stop  offset="1" style="stop-color:#5AD5F2"/>
	</linearGradient>
	<path style="fill:url(#SVGID_00000149379487858750674230000007522996610954657455_);" d="M26.7,24.6c0.4,0,0.6,0.5,0.6,1.1
		c0,0.6-0.3,1.1-0.6,1.1s-0.6-0.5-0.6-1.1C26.1,25.1,26.4,24.6,26.7,24.6z"/>
	
		<linearGradient id="SVGID_00000116948657888453319570000016946968067305519235_" gradientUnits="userSpaceOnUse" x1="22.269" y1="26.8318" x2="22.269" y2="24.6082">
		<stop  offset="0" style="stop-color:#17C3EB"/>
		<stop  offset="0.1962" style="stop-color:#2BC8ED"/>
		<stop  offset="0.5029" style="stop-color:#45CFF0"/>
		<stop  offset="0.7801" style="stop-color:#55D4F1"/>
		<stop  offset="1" style="stop-color:#5AD5F2"/>
	</linearGradient>
	<path style="fill:url(#SVGID_00000116948657888453319570000016946968067305519235_);" d="M22.3,24.6c0.4,0,0.6,0.5,0.6,1.1
		c0,0.6-0.3,1.1-0.6,1.1c-0.4,0-0.6-0.5-0.6-1.1C21.6,25.1,21.9,24.6,22.3,24.6z"/>
</g>
</svg>
